# xmcd
#
# Track frame offsets: 
#        182
#        37535
#        58320
#        91772
#        131082
#        166145
#
# Disc length: 2646 seconds
#
# Revision: 5
# Processed by: cddbd v1.5.2PL0 Copyright (c) Steve Scherf et al.
# Submitted via: ExactAudioCopyFreeDBPlugin 1.0
#
DISCID=410a5406
DTITLE=Eric Clapton - Just One Night
DYEAR=1980
DGENRE=Rock Blues
TTITLE0=Double Trouble - live Japan 1979
TTITLE1=Setting Me Up - live Japan 1979
TTITLE2=Blues Power - live Japan 1979
TTITLE3=Rambling On My Mind - live Japan 1979
TTITLE4=Cocaine - live Japan 1979
TTITLE5=Further On Up The Road - live Japan 1979
EXTD=YEAR: 1980
EXTT0=
EXTT1=
EXTT2=
EXTT3=
EXTT4=
EXTT5=
PLAYORDER=
